<?xml version="1.0" standalone="no"?>
<!DOCTYPE svg PUBLIC "-//W3C//DTD SVG 20010904//EN"
 "http://www.w3.org/TR/2001/REC-SVG-20010904/DTD/svg10.dtd">
<svg version="1.0" xmlns="http://www.w3.org/2000/svg"
 width="1280.000000pt" height="907.000000pt" viewBox="0 0 1280.000000 907.000000"
 preserveAspectRatio="xMidYMid meet">

<g transform="translate(0.000000,907.000000) scale(0.100000,-0.100000)"
fill="#000000" stroke="none">
<path d="M7789 9059 c-228 -19 -363 -116 -363 -263 0 -108 84 -245 224 -366
l60 -53 0 -83 c0 -96 9 -89 -130 -99 -251 -17 -589 -77 -763 -135 -104 -35
-167 -68 -215 -114 -46 -43 -62 -77 -62 -134 0 -55 38 -125 89 -163 17 -12 36
-37 42 -56 18 -55 103 -175 165 -234 189 -177 458 -286 835 -335 68 -8 125
-16 125 -17 4 -5 44 -200 42 -202 -2 -2 -156 -10 -343 -19 -2005 -97 -1897
-94 -2045 -70 -160 25 -430 26 -520 1 -49 -13 -108 -18 -235 -20 -161 -2 -173
-3 -226 -28 -50 -24 -62 -26 -105 -18 -79 15 -255 13 -315 -4 -30 -8 -85 -17
-122 -21 -38 -3 -94 -12 -125 -20 -32 -8 -157 -19 -282 -26 -250 -12 -466 -31
-700 -60 -128 -16 -191 -18 -362 -13 -287 8 -394 -10 -466 -80 -41 -39 -68
-119 -58 -172 9 -48 59 -99 111 -115 70 -21 277 -23 451 -6 122 12 175 13 215
6 200 -39 615 -57 869 -39 102 7 224 12 272 11 47 -2 121 1 163 7 53 8 104 8
170 0 70 -7 116 -7 177 2 46 6 166 13 268 14 143 1 196 5 235 18 34 12 84 17
160 17 177 0 352 33 455 85 40 20 77 25 360 44 624 42 1111 64 1708 77 300 6
312 6 312 -12 -1 -38 -30 -158 -69 -277 -54 -167 -71 -258 -71 -380 0 -124 24
-227 76 -334 43 -87 50 -135 60 -425 5 -137 4 -208 -3 -208 -5 0 -18 10 -29
21 -27 31 -76 49 -131 49 -26 0 -68 7 -93 16 -136 47 -244 19 -297 -79 -14
-25 -18 -56 -18 -147 0 -104 3 -120 25 -165 32 -62 106 -105 179 -105 l47 0
-4 -327 -4 -327 -39 -46 c-107 -127 -111 -290 -9 -395 28 -28 30 -38 40 -149
6 -66 9 -121 7 -123 -2 -2 -54 122 -115 274 -915 2284 -1043 2598 -1059 2605
-10 3 -136 7 -281 7 l-262 1 -11 -27 c-11 -29 -236 -667 -314 -893 -96 -277
-215 -613 -218 -617 -2 -2 -7 63 -10 144 -4 89 -14 187 -27 246 -87 413 -337
753 -690 941 -177 94 -362 150 -600 183 -105 14 -215 17 -680 17 l-555 1 -5
-1305 c-4 -1009 -8 -1299 -17 -1280 -11 25 -285 706 -775 1927 -260 649 -261
653 -292 658 -41 8 -523 2 -531 -6 -3 -4 -30 -76 -60 -160 -29 -85 -95 -271
-145 -414 -50 -143 -129 -368 -175 -500 -46 -132 -127 -364 -180 -515 -53
-151 -134 -383 -180 -515 -46 -132 -125 -357 -175 -500 -119 -336 -139 -397
-140 -412 0 -10 56 -13 249 -13 l249 0 12 33 c12 33 419 1235 610 1802 94 279
109 317 118 295 5 -14 51 -131 102 -260 50 -129 138 -352 194 -495 57 -143
152 -384 211 -535 59 -151 158 -401 219 -555 l111 -280 950 0 c1060 0 1007 -3
1240 72 207 67 382 167 529 304 42 39 76 69 76 66 0 -2 -16 -49 -36 -103 -47
-130 -114 -326 -114 -336 0 -5 113 -7 252 -6 l251 3 74 215 c107 316 548 1623
601 1783 25 75 48 137 51 137 3 0 18 -30 33 -68 29 -73 195 -493 463 -1177 91
-231 259 -657 310 -785 l41 -105 1530 0 1529 0 5 720 5 720 172 300 c579 1012
731 1281 726 1287 -8 14 -487 9 -506 -4 -16 -13 -185 -314 -547 -976 -46 -84
-85 -150 -88 -147 -3 3 -20 38 -37 77 -18 40 -81 181 -140 313 -59 132 -109
245 -111 251 -3 6 20 41 50 79 88 110 136 224 136 323 0 45 -8 32 188 311 l45
63 46 -6 c202 -24 547 -14 728 23 216 45 366 139 427 270 30 66 29 210 -2 303
-44 127 -136 239 -241 292 -157 80 -381 74 -571 -15 -146 -68 -364 -244 -455
-368 -19 -26 -38 -41 -52 -41 -12 0 -125 20 -250 44 -337 65 -629 107 -880
125 -62 4 -115 10 -118 13 -3 3 7 56 22 119 l28 113 105 13 c437 54 754 184
959 392 42 42 93 106 113 141 21 36 54 78 73 93 55 44 95 121 95 185 0 166
-174 264 -590 331 -135 22 -422 51 -506 51 -89 0 -114 9 -114 39 0 81 10 98
85 156 98 75 208 193 241 257 31 62 42 149 24 203 -18 55 -72 108 -137 138
-110 49 -186 56 -583 59 -201 2 -399 0 -441 -3z m866 -91 c144 -43 184 -107
135 -211 -26 -55 -135 -166 -240 -246 l-85 -63 -10 -129 -10 -129 -290 -4
c-159 -3 -307 -8 -327 -12 l-38 -7 0 149 0 149 -81 70 c-137 119 -209 221
-209 295 0 39 5 51 33 77 81 77 123 82 642 79 350 -2 439 -5 480 -18z m-240
-843 c610 -20 1072 -98 1183 -199 53 -49 41 -108 -31 -151 -15 -9 -39 -40 -53
-68 -138 -274 -518 -465 -1029 -518 -153 -15 -600 -12 -788 6 -344 33 -644
145 -802 301 -69 68 -127 156 -145 218 -7 25 -17 46 -21 46 -20 0 -89 74 -89
94 0 114 494 218 1260 266 96 6 195 12 220 13 25 2 63 2 85 0 22 -1 117 -5
210 -8z m-95 -1021 c0 -31 -49 -231 -75 -304 -15 -41 -27 -82 -28 -90 -2 -13
26 -16 173 -21 96 -4 222 -12 280 -18 206 -24 660 -99 878 -146 62 -14 119
-25 126 -25 7 0 39 33 69 73 210 274 495 439 732 424 101 -6 140 -19 210 -65
95 -64 160 -180 172 -309 17 -178 -130 -293 -435 -338 -121 -19 -394 -23 -602
-11 l-135 8 -140 -198 -140 -197 -6 -82 c-10 -140 -30 -173 -287 -461 -204
-229 -262 -308 -303 -410 -72 -181 -228 -423 -343 -534 l-46 -44 1 -351 0
-350 47 -31 c80 -52 110 -119 81 -177 -16 -32 -100 -116 -131 -133 -26 -14
-28 -19 -28 -80 l0 -65 293 1 c160 0 298 0 305 0 9 0 12 -27 12 -100 l0 -100
-700 0 -700 0 0 28 c0 15 -5 89 -11 163 l-10 134 -38 40 c-51 53 -61 75 -61
132 0 55 18 90 77 148 l40 40 5 383 c7 467 11 447 -99 443 -76 -2 -125 15
-138 48 -4 9 -6 58 -6 110 1 115 11 131 81 131 26 0 73 -9 105 -20 38 -13 70
-18 94 -14 27 4 42 1 60 -13 l24 -19 -17 -86 c-27 -134 0 -198 82 -198 45 0
84 41 105 112 37 118 47 372 26 674 -8 129 -14 167 -32 199 -53 101 -67 136
-83 215 -28 141 -8 304 63 500 44 120 60 202 65 315 l3 90 -340 -2 c-592 -4
-1322 -35 -2050 -89 -58 -4 -96 -13 -140 -34 -33 -16 -87 -35 -121 -44 -88
-23 -257 -39 -339 -33 -55 4 -83 1 -130 -16 -52 -18 -85 -21 -245 -23 -102 -1
-221 -6 -265 -11 -49 -6 -111 -6 -160 -1 -51 6 -115 5 -175 -1 -52 -6 -133
-10 -180 -8 -47 1 -170 -4 -275 -11 -242 -17 -580 -3 -815 34 -80 13 -112 13
-200 3 -149 -18 -416 -18 -457 0 -57 24 -38 91 34 124 44 20 65 22 228 22 99
0 214 -2 255 -4 41 -2 129 4 195 13 151 20 531 52 785 66 109 6 217 17 245 25
28 8 91 19 140 24 50 5 110 15 135 21 46 12 213 7 297 -9 35 -7 49 -4 80 14
65 38 133 49 274 41 117 -6 133 -5 191 16 90 32 328 31 508 -1 l125 -22 605
30 c333 17 709 35 835 41 673 29 961 43 967 49 3 3 -7 56 -22 116 -16 61 -35
145 -43 188 l-15 77 229 0 c201 0 229 -2 229 -16z m-6469 -2134 c340 -846 783
-1953 795 -1983 6 -16 -9 -17 -251 -15 l-257 3 -197 500 c-108 275 -316 803
-461 1172 -146 370 -267 669 -271 665 -3 -4 -18 -41 -32 -82 -140 -414 -544
-1612 -640 -1897 l-122 -363 -132 0 c-73 0 -133 3 -133 8 0 4 25 79 56 167 31
88 75 216 99 285 24 69 73 208 108 310 66 187 236 674 329 940 28 80 66 188
84 240 19 52 70 199 114 325 44 127 104 296 133 378 l52 147 204 -2 203 -3
319 -795z m1997 789 c612 -67 1028 -381 1196 -904 45 -141 57 -214 63 -395 8
-259 -15 -437 -84 -640 -151 -445 -470 -722 -961 -832 -92 -20 -128 -21 -671
-25 -315 -3 -584 -2 -597 1 l-24 6 0 1400 0 1400 490 0 c280 0 532 -5 588 -11z
m2849 -1099 c244 -608 495 -1234 558 -1392 63 -157 115 -289 115 -292 0 -3
-114 -6 -253 -6 l-254 0 -15 38 c-8 20 -144 366 -302 767 -159 402 -296 750
-306 775 -10 25 -80 203 -156 395 -75 193 -140 357 -144 365 -10 18 1 48 -104
-265 -46 -137 -216 -639 -376 -1115 -161 -476 -299 -886 -308 -912 l-16 -48
-133 0 c-73 0 -133 2 -133 5 0 7 126 370 290 835 34 96 82 231 105 300 24 69
103 294 175 500 72 206 153 438 180 515 88 255 220 626 226 636 3 6 86 8 207
7 l201 -3 443 -1105z m3849 1068 c-118 -206 -227 -396 -262 -458 -23 -41 -155
-273 -293 -515 l-251 -440 0 -672 c0 -435 -3 -673 -10 -675 -5 -1 -120 -2
-255 0 l-245 3 0 648 0 649 -159 325 -159 326 51 64 c196 242 249 306 262 317
12 10 18 5 34 -31 25 -58 133 -301 181 -409 20 -47 64 -143 95 -215 32 -71 61
-134 65 -138 7 -8 82 124 342 598 187 340 319 579 344 623 l25 42 130 0 130 0
-25 -42z m-1518 -1261 l123 -252 -1 -482 0 -483 -265 0 c-146 0 -265 2 -265 5
0 3 16 25 35 50 85 112 68 251 -41 343 l-44 36 0 289 0 289 59 66 c75 86 150
192 213 303 28 49 54 89 57 88 3 0 61 -114 129 -252z"/>
<path d="M10360 6823 c-71 -14 -223 -93 -314 -165 -58 -46 -186 -163 -186
-171 0 -23 302 -50 494 -44 197 6 252 20 313 82 39 38 43 47 43 91 0 30 -7 61
-19 80 -26 43 -100 101 -151 119 -40 14 -125 18 -180 8z m188 -159 c42 -17 92
-61 92 -81 0 -20 -45 -44 -108 -59 -59 -14 -316 -18 -361 -5 -24 6 -23 8 25
43 138 100 267 138 352 102z"/>
<path d="M8187 6343 c6 -143 7 -149 44 -228 66 -141 84 -221 83 -375 -1 -160
-25 -257 -100 -405 l-46 -90 -19 -325 c-10 -179 -16 -344 -13 -366 8 -59 38
-103 82 -121 53 -22 84 -9 94 41 21 101 151 323 339 581 87 120 111 163 171
300 165 379 299 558 398 532 17 -4 31 10 72 71 29 43 91 132 139 198 47 67 89
126 93 132 24 39 -362 127 -724 166 -164 18 -439 36 -547 36 l-72 0 6 -147z
m383 -18 c298 -17 822 -96 819 -123 0 -4 -37 -58 -82 -121 -76 -106 -85 -115
-129 -128 -63 -18 -152 -101 -222 -207 -58 -86 -173 -313 -227 -449 -22 -55
-60 -119 -115 -192 -107 -145 -237 -343 -283 -430 l-36 -70 -3 36 c-2 19 4
147 12 285 l14 249 40 80 c142 284 147 580 17 863 -30 64 -35 85 -35 149 l0
75 63 -6 c34 -3 109 -8 167 -11z"/>
<path d="M3260 5546 c0 -3 0 -531 0 -1173 l0 -1168 257 -3 c292 -3 398 8 532
57 200 73 352 201 460 389 118 204 163 507 127 852 -29 271 -63 404 -146 575
-110 225 -269 365 -500 441 -85 28 -86 28 -407 32 -178 2 -323 1 -323 -2z
m668 -162 c190 -39 321 -125 436 -287 138 -194 207 -489 207 -882 0 -332 -72
-539 -250 -715 -71 -71 -103 -94 -181 -132 -162 -80 -207 -88 -486 -88 -211 0
-243 2 -248 16 -8 21 -8 2089 1 2097 3 4 105 7 225 7 161 0 239 -4 296 -16z"/>
<path d="M12090 6117 c-180 -51 -325 -212 -349 -387 -38 -284 152 -523 434
-547 340 -28 595 298 488 627 -39 121 -156 243 -280 291 -71 27 -224 36 -293
16z m175 -72 c33 -9 84 -32 113 -52 106 -72 156 -171 156 -303 -1 -106 -31
-178 -103 -251 -75 -75 -144 -102 -261 -102 -114 -1 -187 31 -265 115 -184
199 -89 521 175 592 72 19 113 19 185 1z"/>
<path d="M12077 5986 c-222 -80 -279 -368 -103 -523 120 -106 329 -93 427 26
54 66 73 118 73 206 0 67 -4 88 -26 131 -34 65 -114 137 -175 158 -56 19 -144
20 -196 2z m197 -110 c44 -18 66 -52 66 -99 0 -38 -20 -67 -65 -93 -19 -10
-18 -12 12 -27 35 -19 53 -59 53 -123 l0 -44 -44 0 c-48 0 -56 9 -56 65 0 45
-27 73 -77 81 l-43 7 0 -77 0 -76 -50 0 -50 0 0 200 0 200 110 0 c72 0 122 -5
144 -14z"/>
<path d="M12120 5766 c0 -73 3 -75 69 -56 40 11 51 24 51 61 0 35 -17 48 -74
55 l-46 7 0 -67z"/>
<path d="M11033 5842 c-11 -7 -92 -231 -248 -682 -24 -69 -105 -300 -180 -515
-75 -214 -170 -487 -211 -605 -42 -118 -89 -253 -106 -300 -16 -47 -49 -141
-73 -210 -24 -69 -89 -255 -144 -413 -56 -159 -101 -293 -101 -298 0 -6 97 -8
252 -7 l253 3 52 155 c29 85 168 497 309 915 141 418 279 829 306 913 28 83
54 152 57 152 4 0 196 -480 426 -1067 l420 -1068 369 -3 c204 -1 373 1 377 5
3 5 -94 258 -216 563 -845 2108 -984 2452 -990 2458 -10 10 -538 14 -552 4z
m744 -832 c691 -1721 814 -2031 809 -2038 -2 -4 -116 -6 -254 -4 l-249 3 -51
127 c-28 70 -101 255 -163 412 -61 157 -172 438 -246 625 -73 187 -161 410
-194 495 -34 85 -82 209 -108 275 -130 329 -166 414 -172 408 -3 -5 -49 -136
-102 -293 -53 -157 -206 -613 -342 -1015 -135 -401 -269 -799 -296 -882 l-51
-153 -134 0 c-74 0 -134 2 -134 4 0 5 168 489 260 751 45 127 124 352 175 500
52 149 133 380 180 515 188 535 298 849 328 938 l31 92 205 -2 205 -3 303
-755z"/>
<path d="M11320 3434 c-86 -23 -137 -52 -206 -116 -71 -67 -120 -152 -130
-229 -6 -45 -8 -48 -38 -51 l-31 -3 -3 -197 -2 -198 450 0 450 0 -2 198 -3
197 -87 3 c-49 1 -88 7 -88 13 0 5 33 71 74 147 86 157 88 142 -29 197 -120
56 -242 69 -355 39z m210 -84 c53 -12 120 -40 120 -50 0 -4 -20 -46 -45 -93
l-46 -85 -32 9 c-75 21 -149 4 -181 -43 -19 -27 -21 -119 -4 -136 8 -8 65 -12
190 -12 l178 0 0 -105 0 -105 -350 0 -350 0 0 105 c0 110 1 112 48 106 9 -1
12 19 12 72 0 62 5 83 31 135 31 62 104 138 163 170 68 35 185 50 266 32z"/>
<path d="M0 1605 l0 -1005 4300 0 4300 0 0 1005 0 1005 -315 0 -315 0 0 -725
0 -725 -1475 0 -1475 0 0 470 0 470 -315 0 -315 0 0 -470 0 -470 -1880 0
-1880 0 0 725 0 725 -315 0 -315 0 0 -1005z m531 208 c1 -390 1 -713 0 -719
-1 -6 5 -16 12 -23 10 -8 540 -10 1973 -8 l1959 2 3 468 2 467 225 0 225 0 2
-467 3 -468 1560 0 1560 0 3 728 2 727 225 0 225 0 0 -915 0 -915 -4210 0
-4210 0 0 915 0 915 220 0 220 0 1 -707z"/>
<path d="M8820 1605 l0 -1005 315 0 315 0 0 1005 0 1005 -315 0 -315 0 0
-1005z m540 0 l0 -915 -223 0 -224 0 3 22 c1 13 3 425 3 916 l1 892 220 0 220
0 0 -915z"/>
<path d="M11050 1605 l0 -1005 310 0 310 0 0 1005 0 1005 -310 0 -310 0 0
-1005z m530 0 l0 -915 -220 0 -220 0 0 915 0 915 220 0 220 0 0 -915z"/>
<path d="M9670 1817 l0 -286 218 -3 c249 -3 278 -11 319 -84 22 -39 43 -158
43 -240 l0 -44 -325 0 -325 0 0 -280 0 -280 640 0 640 0 0 328 c0 330 -8 458
-35 567 -68 268 -222 448 -459 534 -138 49 -228 62 -483 68 l-233 6 0 -286z
m510 168 c261 -39 432 -162 530 -379 58 -128 63 -168 68 -558 l4 -358 -546 0
-546 0 0 185 0 185 323 2 322 3 0 155 c0 122 -4 166 -18 207 -54 155 -155 202
-439 203 l-118 0 0 185 0 185 163 0 c90 0 204 -6 257 -15z"/>
<path d="M3990 260 l0 -260 495 0 495 0 0 260 0 260 -495 0 -495 0 0 -260z
m898 3 l-3 -168 -402 -3 -403 -2 0 170 0 170 405 0 405 0 -2 -167z"/>
</g>
</svg>
